<svg width="122" height="40" viewBox="0 0 122 40" fill="none" xmlns="http://www.w3.org/2000/svg">
<path d="M51.5723 22.0488H46.0742V19.7734H51.5723V22.0488ZM70.166 22.2637C70.0553 23.7936 69.4889 24.998 68.4668 25.877C67.4512 26.7559 66.11 27.1953 64.4434 27.1953C62.6204 27.1953 61.1849 26.5833 60.1367 25.3594C59.0951 24.1289 58.5742 22.4427 58.5742 20.3008V19.4316C58.5742 18.0645 58.8151 16.86 59.2969 15.8184C59.7786 14.7767 60.4655 13.9792 61.3574 13.4258C62.2559 12.8659 63.2975 12.5859 64.4824 12.5859C66.123 12.5859 67.4447 13.0254 68.4473 13.9043C69.4499 14.7832 70.0293 16.0169 70.1855 17.6055H67.2559C67.1842 16.6875 66.9271 16.0234 66.4844 15.6133C66.0482 15.1966 65.3809 14.9883 64.4824 14.9883C63.5059 14.9883 62.7734 15.3398 62.2852 16.043C61.8034 16.7396 61.556 17.8236 61.543 19.2949V20.3691C61.543 21.9056 61.7741 23.0286 62.2363 23.7383C62.7051 24.4479 63.4408 24.8027 64.4434 24.8027C65.3483 24.8027 66.0221 24.5977 66.4648 24.1875C66.9141 23.7708 67.1712 23.1296 67.2363 22.2637H70.166ZM75.0195 24.6465H81.2402V27H72.0898V12.7812H75.0195V24.6465ZM93.9844 20.2129C93.9844 21.6126 93.737 22.8398 93.2422 23.8945C92.7474 24.9492 92.0378 25.763 91.1133 26.3359C90.1953 26.9089 89.1406 27.1953 87.9492 27.1953C86.7708 27.1953 85.7194 26.9121 84.7949 26.3457C83.8704 25.7793 83.1543 24.972 82.6465 23.9238C82.1387 22.8691 81.8815 21.6582 81.875 20.291V19.5879C81.875 18.1882 82.1257 16.9577 82.627 15.8965C83.1348 14.8288 83.8477 14.0117 84.7656 13.4453C85.6901 12.8724 86.7448 12.5859 87.9297 12.5859C89.1146 12.5859 90.166 12.8724 91.084 13.4453C92.0085 14.0117 92.7214 14.8288 93.2227 15.8965C93.7305 16.9577 93.9844 18.1849 93.9844 19.5781V20.2129ZM91.0156 19.5684C91.0156 18.0775 90.7487 16.9447 90.2148 16.1699C89.681 15.3952 88.9193 15.0078 87.9297 15.0078C86.9466 15.0078 86.1882 15.3919 85.6543 16.1602C85.1204 16.9219 84.8503 18.0417 84.8438 19.5195V20.2129C84.8438 21.6647 85.1107 22.791 85.6445 23.5918C86.1784 24.3926 86.9466 24.793 87.9492 24.793C88.9323 24.793 89.6875 24.4089 90.2148 23.6406C90.7422 22.8659 91.0091 21.7396 91.0156 20.2617V19.5684ZM106.875 12.7812V22.1465C106.875 23.7025 106.387 24.9329 105.41 25.8379C104.44 26.7428 103.112 27.1953 101.426 27.1953C99.7656 27.1953 98.4473 26.7559 97.4707 25.877C96.4941 24.998 95.9961 23.7904 95.9766 22.2539V12.7812H98.9062V22.166C98.9062 23.097 99.1276 23.7773 99.5703 24.207C100.02 24.6302 100.638 24.8418 101.426 24.8418C103.073 24.8418 103.91 23.9759 103.936 22.2441V12.7812H106.875ZM109.277 27V12.7812H113.652C114.902 12.7812 116.019 13.0645 117.002 13.6309C117.992 14.1908 118.763 14.9915 119.316 16.0332C119.87 17.0684 120.146 18.2467 120.146 19.5684V20.2227C120.146 21.5443 119.873 22.7194 119.326 23.748C118.786 24.7767 118.021 25.5742 117.031 26.1406C116.042 26.707 114.925 26.9935 113.682 27H109.277ZM112.207 15.1543V24.6465H113.623C114.769 24.6465 115.645 24.2721 116.25 23.5234C116.855 22.7747 117.165 21.7038 117.178 20.3105V19.5586C117.178 18.1133 116.878 17.0195 116.279 16.2773C115.68 15.5286 114.805 15.1543 113.652 15.1543H112.207Z" fill="#566885"/>
<ellipse cx="19" cy="25.4706" rx="18" ry="13" fill="#566885"/>
<ellipse cx="19" cy="25.3884" rx="2.26957" ry="1.61157" fill="#D6E1EF"/>
<g filter="url(#filter0_i)">
<ellipse cx="19" cy="25.3884" rx="4.38261" ry="3.1157" fill="#D6E1EF" fill-opacity="0.5"/>
</g>
<ellipse cx="17" cy="12" rx="16" ry="12" fill="#566885"/>
<ellipse cx="17" cy="10.5124" rx="2.01739" ry="1.4876" fill="#D6E1EF"/>
<g filter="url(#filter1_i)">
<ellipse cx="17" cy="10.5124" rx="3.89565" ry="2.87603" fill="#D6E1EF" fill-opacity="0.5"/>
</g>
<rect y="1" width="4" height="36" fill="#566885"/>
<defs>
<filter id="filter0_i" x="14.6174" y="22.2727" width="8.76522" height="8.23141" filterUnits="userSpaceOnUse" color-interpolation-filters="sRGB">
<feFlood flood-opacity="0" result="BackgroundImageFix"/>
<feBlend mode="normal" in="SourceGraphic" in2="BackgroundImageFix" result="shape"/>
<feColorMatrix in="SourceAlpha" type="matrix" values="0 0 0 0 0 0 0 0 0 0 0 0 0 0 0 0 0 0 127 0" result="hardAlpha"/>
<feOffset dy="2"/>
<feGaussianBlur stdDeviation="1"/>
<feComposite in2="hardAlpha" operator="arithmetic" k2="-1" k3="1"/>
<feColorMatrix type="matrix" values="0 0 0 0 0 0 0 0 0 0 0 0 0 0 0 0 0 0 0.25 0"/>
<feBlend mode="normal" in2="shape" result="effect1_innerShadow"/>
</filter>
<filter id="filter1_i" x="13.1043" y="7.63635" width="7.79131" height="7.75207" filterUnits="userSpaceOnUse" color-interpolation-filters="sRGB">
<feFlood flood-opacity="0" result="BackgroundImageFix"/>
<feBlend mode="normal" in="SourceGraphic" in2="BackgroundImageFix" result="shape"/>
<feColorMatrix in="SourceAlpha" type="matrix" values="0 0 0 0 0 0 0 0 0 0 0 0 0 0 0 0 0 0 127 0" result="hardAlpha"/>
<feOffset dy="2"/>
<feGaussianBlur stdDeviation="1"/>
<feComposite in2="hardAlpha" operator="arithmetic" k2="-1" k3="1"/>
<feColorMatrix type="matrix" values="0 0 0 0 0 0 0 0 0 0 0 0 0 0 0 0 0 0 0.25 0"/>
<feBlend mode="normal" in2="shape" result="effect1_innerShadow"/>
</filter>
</defs>
</svg>
